<svg xmlns="http://www.w3.org/2000/svg" viewBox="0 0 1024 1024" width="1024" height="1024">
  <defs>
    <linearGradient id="bg" x1="0%" y1="0%" x2="100%" y2="100%">
      <stop offset="0%" style="stop-color:#07C160;stop-opacity:1" />
      <stop offset="100%" style="stop-color:#06AD56;stop-opacity:1" />
    </linearGradient>
  </defs>
  <rect width="1024" height="1024" rx="180" fill="url(#bg)"/>
  <!-- 对话气泡1 -->
  <path d="M512 256c-176.73 0-320 114.62-320 256 0 80.67 43.67 152.87 114.18 200.73l-34.13 102.4 122.45-61.22c36.24 9.92 74.96 15.29 117.5 15.29 176.73 0 320-114.62 320-256S688.73 256 512 256z" fill="#ffffff"/>
  <!-- 对话气泡2（小） -->
  <path d="M768 512c-88.37 0-160 62.28-160 139.09 0 43.74 23.83 82.84 62.18 108.76l-18.58 55.6 66.72-33.31c16.47 3.77 34.05 5.86 52.96 5.86 88.37 0 160-62.28 160-139.09S856.37 512 768 512z" fill="#ffffff" opacity="0.85"/>
  <!-- 眼睛1 -->
  <circle cx="420" cy="460" r="28" fill="#07C160"/>
  <circle cx="420" cy="460" r="12" fill="#ffffff"/>
  <!-- 眼睛2 -->
  <circle cx="560" cy="460" r="28" fill="#07C160"/>
  <circle cx="560" cy="460" r="12" fill="#ffffff"/>
  <!-- 嘴巴/微笑 -->
  <path d="M440 540 Q490 580 540 540" stroke="#07C160" stroke-width="20" stroke-linecap="round" fill="none"/>
</svg>
